<?xml version="1.0" encoding="iso-8859-1"?>
<!-- Uploaded to: SVG Repo, www.svgrepo.com, Generator: SVG Repo Mixer Tools -->
<svg height="800px" width="800px" version="1.1" id="Layer_1" xmlns="http://www.w3.org/2000/svg" xmlns:xlink="http://www.w3.org/1999/xlink" 
	 viewBox="0 0 512 512" xml:space="preserve">
<path style="fill:#FF3F62;" d="M364.606,162.909h-85.333V77.576c0-12.853-10.42-23.273-23.273-23.273
	c-12.853,0-23.273,10.42-23.273,23.273v85.333h-85.333C66.121,162.909,0,229.028,0,310.303c0,81.273,66.121,147.394,147.394,147.394
	c4.108,0,8.198-0.171,12.263-0.51c4.063-0.34,8.102-0.846,12.103-1.516c2.001-0.335,3.992-0.712,5.973-1.128
	c3.963-0.833,7.885-1.829,11.756-2.984c3.871-1.154,7.692-2.468,11.453-3.936c3.761-1.468,7.463-3.091,11.093-4.866
	c1.815-0.887,3.613-1.812,5.395-2.776c3.559-1.924,7.045-4,10.446-6.22s6.72-4.586,9.944-7.095H256h18.179
	c25.792,20.07,57.564,31.03,90.427,31.03c81.273,0,147.394-66.121,147.394-147.394C512,229.028,445.879,162.909,364.606,162.909z"/>
<path style="fill:#898890;" d="M279.273,162.909V77.576c0-12.853-10.42-23.273-23.273-23.273c-12.853,0-23.273,10.42-23.273,23.273
	v85.333H256H279.273z"/>
<g>
	<path style="fill:#FFA733;" d="M370.091,271.905l-43.793,43.793c-0.031,0.031-0.064,0.054-0.095,0.085
		c-0.549,0.549-1.067,1.128-1.553,1.727c-7.014,8.555-7.011,20.933,0.012,29.483c0.484,0.596,0.998,1.167,1.541,1.713
		c0.551,0.551,1.13,1.071,1.733,1.562c4.273,3.499,9.498,5.252,14.725,5.252c5.224,0,10.446-1.75,14.716-5.246
		c0.608-0.492,1.193-1.013,1.749-1.569c0.039-0.039,0.073-0.084,0.11-0.123L403,304.82c9.089-9.089,9.089-23.824,0-32.914
		C393.916,262.817,379.179,262.817,370.091,271.905z"/>
	<path style="fill:#FFA733;" d="M178.424,287.03h-7.758v-7.758c0-12.854-10.42-23.273-23.273-23.273
		c-12.853,0-23.273,10.418-23.273,23.273v7.758h-7.758c-12.853,0-23.273,10.418-23.273,23.273c0,12.851,10.42,23.273,23.273,23.273
		h7.758v7.758c0,12.851,10.42,23.273,23.273,23.273c12.853,0,23.273-10.422,23.273-23.273v-7.758h7.758
		c12.853,0,23.273-10.422,23.273-23.273C201.697,297.449,191.277,287.03,178.424,287.03z"/>
</g>
<path style="fill:#D8143A;" d="M232.727,162.909h-85.333C66.121,162.909,0,229.028,0,310.303
	c0,81.273,66.121,147.394,147.394,147.394c32.863,0,64.635-10.961,90.427-31.03H256V162.909H232.727z M178.424,333.576h-7.758v7.758
	c0,12.851-10.42,23.273-23.273,23.273c-12.853,0-23.273-10.422-23.273-23.273v-7.758h-7.758c-12.853,0-23.273-10.422-23.273-23.273
	c0-12.854,10.42-23.273,23.273-23.273h7.758v-7.758c0-12.854,10.42-23.273,23.273-23.273c12.853,0,23.273,10.418,23.273,23.273
	v7.758h7.758c12.853,0,23.273,10.418,23.273,23.273C201.697,323.154,191.277,333.576,178.424,333.576z"/>
</svg>